<svg width="25" height="24" viewBox="0 0 25 24" fill="none" xmlns="http://www.w3.org/2000/svg">
<g id="Favicon 2">
<g id="Group">
<path id="Vector" fill-rule="evenodd" clip-rule="evenodd" d="M5.33772 14.6074L8.37887 12L5.31372 9.39429L5.29315 4.98L13.5457 12L5.35829 19.0183L5.33772 14.6074Z" fill="white"/>
<path id="Vector_2" d="M5.46629 5.35372L13.2817 12.0017L5.528 18.648L5.50914 14.6863L8.64114 12.0017L5.48343 9.31543L5.46457 5.35372M5.11829 4.60972L5.12171 5.35543L5.14057 9.31714V9.47486L5.26057 9.57772L8.11143 12.0034L5.28457 14.4274L5.16457 14.5303V14.6897L5.18343 18.6514L5.18686 19.392L5.74914 18.9103L13.5029 12.264L13.808 12.0034L13.5029 11.7429L5.68914 5.09143L5.12 4.608L5.11829 4.60972Z" fill="white"/>
</g>
<g id="Group_2">
<path id="Vector_3" fill-rule="evenodd" clip-rule="evenodd" d="M13.3092 14.6074L16.3503 12L13.2852 9.39428L13.2646 4.98L21.5172 12L13.3297 19.0183L13.3092 14.6074Z" fill="white"/>
<path id="Vector_4" d="M13.4377 5.35371L21.2531 12.0017L13.4994 18.648L13.4806 14.6863L16.6126 12.0017L13.4549 9.31543L13.436 5.35371M13.0897 4.60971L13.0931 5.35543L13.112 9.31714V9.47485L13.232 9.57771L16.0829 12.0034L13.256 14.4274L13.136 14.5303V14.6897L13.1549 18.6514L13.1583 19.392L13.7206 18.9103L21.4743 12.264L21.7794 12.0034L21.4743 11.7429L13.6589 5.09485L13.0897 4.61143V4.60971Z" fill="white"/>
</g>
</g>
</svg>
