<svg width="16" height="14" viewBox="0 0 16 14" fill="none" xmlns="http://www.w3.org/2000/svg">
<g clip-path="url(#clip0_3818_3156)">
<path fill-rule="evenodd" clip-rule="evenodd" d="M-0.162277 9.60743L2.87887 7L-0.186277 4.39429L-0.206848 -0.0200002L8.04572 7L-0.141705 14.0183L-0.162277 9.60743Z" fill="white"/>
<path d="M-0.0337141 0.353714L7.78171 7.00172L0.0280003 13.648L0.00914308 9.68629L3.14114 7.00172L-0.0165711 4.31543L-0.0354284 0.353714M-0.381714 -0.390286L-0.378286 0.355428L-0.359428 4.31714V4.47486L-0.239428 4.57771L2.61143 7.00343L-0.215428 9.42743L-0.335428 9.53029V9.68972L-0.316571 13.6514L-0.313143 14.392L0.249143 13.9103L8.00286 7.264L8.308 7.00343L8.00286 6.74286L0.189143 0.0914287L-0.38 -0.392L-0.381714 -0.390286Z" fill="white"/>
<path fill-rule="evenodd" clip-rule="evenodd" d="M7.80916 9.60743L10.8503 7L7.78516 4.39429L7.76459 -0.0200002L16.0172 7L7.82973 14.0183L7.80916 9.60743Z" fill="white"/>
<path d="M7.93772 0.353714L15.7531 7.00171L7.99944 13.648L7.98058 9.68629L11.1126 7.00171L7.95486 4.31543L7.93601 0.353714M7.58972 -0.390286L7.59315 0.355428L7.61201 4.31714V4.47486L7.73201 4.57771L10.5829 7.00343L7.75601 9.42743L7.63601 9.53029V9.68971L7.65486 13.6514L7.65829 14.392L8.22058 13.9103L15.9743 7.264L16.2794 7.00343L15.9743 6.74286L8.15886 0.0948569L7.58972 -0.388572V-0.390286Z" fill="white"/>
</g>
<defs>
<clipPath id="clip0_3818_3156">
<rect width="16" height="14" fill="white"/>
</clipPath>
</defs>
</svg>
