<svg width="24" height="24" viewBox="0 0 24 24" fill="none" xmlns="http://www.w3.org/2000/svg">
<path fill-rule="evenodd" clip-rule="evenodd" d="M4.83754 14.6074L7.87868 12L4.81354 9.39427L4.79297 4.97998L13.0455 12L4.85811 19.0183L4.83754 14.6074Z" fill="#212121"/>
<path d="M4.96616 5.35362L12.7816 12.0016L5.02788 18.6479L5.00902 14.6862L8.14102 12.0016L4.98331 9.31534L4.96445 5.35362M4.61816 4.60962L4.62159 5.35534L4.64045 9.31705V9.47477L4.76045 9.57762L7.61131 12.0033L4.78445 14.4273L4.66445 14.5302V14.6896L4.68331 18.6513L4.68674 19.3919L5.24902 18.9102L13.0027 12.2639L13.3079 12.0033L13.0027 11.7428L5.18902 5.09134L4.61988 4.60791L4.61816 4.60962Z" fill="#2B62A3"/>
<path fill-rule="evenodd" clip-rule="evenodd" d="M12.8092 14.6074L15.8504 12L12.7852 9.39427L12.7646 4.97998L21.0172 12L12.8298 19.0183L12.8092 14.6074Z" fill="#2B62A3"/>
<path d="M12.9378 5.35386L20.7533 12.0019L12.9996 18.6481L12.9807 14.6864L16.1127 12.0019L12.955 9.31558L12.9361 5.35386M12.5898 4.60986L12.5933 5.35558L12.6121 9.31729V9.47501L12.7321 9.57786L15.583 12.0036L12.7561 14.4276L12.6361 14.5304V14.6899L12.655 18.6516L12.6584 19.3921L13.2207 18.9104L20.9744 12.2641L21.2796 12.0036L20.9744 11.743L13.159 5.09501L12.5898 4.61158V4.60986Z" fill="#212121"/>
</svg>
