<svg width="160" height="160" viewBox="0 0 160 160" fill="none" xmlns="http://www.w3.org/2000/svg">
<g id="Favicon 2">
<g id="Group">
<path id="Vector" fill-rule="evenodd" clip-rule="evenodd" d="M32.2512 97.3828L52.5255 80L32.0912 62.6285L31.9541 33.2L86.9712 80L32.3884 126.789L32.2512 97.3828Z" fill="#212121"/>
<path id="Vector_2" d="M33.1081 35.6914L85.2109 80.0114L33.5195 124.32L33.3938 97.9085L54.2738 80.0114L33.2224 62.1028L33.0967 35.6914M30.7881 30.7314L30.8109 35.7028L30.9367 62.1143V63.1657L31.7367 63.8514L50.7424 80.0228L31.8967 96.1828L31.0967 96.8686V97.9314L31.2224 124.343L31.2452 129.28L34.9938 126.069L86.6852 81.76L88.7195 80.0228L86.6852 78.2857L34.5938 33.9428L30.7995 30.72L30.7881 30.7314Z" fill="#2B62A3"/>
</g>
<g id="Group_2">
<path id="Vector_3" fill-rule="evenodd" clip-rule="evenodd" d="M85.3948 97.3828L105.669 80L85.2348 62.6285L85.0977 33.2L140.115 80L85.5319 126.789L85.3948 97.3828Z" fill="#2B62A3"/>
<path id="Vector_4" d="M86.2516 35.6914L138.354 80.0115L86.6631 124.32L86.5374 97.9086L107.417 80.0115L86.3659 62.1029L86.2402 35.6914M83.9316 30.7314L83.9545 35.7029L84.0802 62.1143V63.1657L84.8802 63.8514L103.886 80.0229L85.0402 96.1829L84.2402 96.8686V97.9314L84.3659 124.343L84.3888 129.28L88.1374 126.069L139.829 81.76L141.863 80.0229L139.829 78.2857L87.7259 33.9657L83.9316 30.7429V30.7314Z" fill="#212121"/>
</g>
</g>
</svg>
