<svg width="204" height="67" viewBox="0 0 204 67" fill="none" xmlns="http://www.w3.org/2000/svg">
<path d="M0.208333 64.2792C0.208333 65.752 1.40224 66.9459 2.875 66.9459C4.34776 66.9459 5.54167 65.752 5.54167 64.2792C5.54167 62.8064 4.34776 61.6125 2.875 61.6125C1.40224 61.6125 0.208333 62.8064 0.208333 64.2792ZM198.196 14.6024C198.196 16.0752 199.39 17.2691 200.862 17.2691C202.335 17.2691 203.529 16.0752 203.529 14.6024C203.529 13.1297 202.335 11.9358 200.862 11.9358C199.39 11.9358 198.196 13.1297 198.196 14.6024ZM3.30072 64.5414C3.72127 63.8587 4.16237 63.1658 4.62398 62.4638L3.78845 61.9144C3.32155 62.6244 2.87514 63.3256 2.44928 64.017L3.30072 64.5414ZM7.48793 58.3571C8.44176 57.0622 9.45925 55.7456 10.5401 54.4131L9.76347 53.7831C8.67304 55.1274 7.64603 56.4563 6.68279 57.764L7.48793 58.3571ZM13.7627 50.6105C14.8389 49.3933 15.9657 48.1679 17.143 46.9385L16.4208 46.2469C15.2344 47.4858 14.0985 48.721 13.0135 49.9481L13.7627 50.6105ZM20.6656 43.3978C21.8407 42.2602 23.0585 41.1227 24.3188 39.9886L23.6499 39.2452C22.3805 40.3875 21.1538 41.5333 19.97 42.6793L20.6656 43.3978ZM28.0939 36.7116C29.3533 35.6568 30.65 34.6079 31.9838 33.5675L31.3688 32.779C30.0258 33.8265 28.7201 34.8827 27.4518 35.9449L28.0939 36.7116ZM35.9795 30.56C37.3079 29.5953 38.6693 28.6406 40.0635 27.6984L39.5036 26.8698C38.0999 27.8185 36.7293 28.7796 35.3919 29.7509L35.9795 30.56ZM44.2442 24.9743C45.6386 24.0986 47.063 23.2363 48.5172 22.3894L48.014 21.5253C46.5501 22.3778 45.1161 23.2459 43.7123 24.1274L44.2442 24.9743ZM52.8788 19.9458C54.3335 19.1623 55.8157 18.3949 57.3252 17.6454L56.8805 16.7497C55.361 17.5042 53.869 18.2767 52.4046 19.0654L52.8788 19.9458ZM61.8352 15.4983C63.3337 14.815 64.8573 14.1498 66.4058 13.5042L66.021 12.5812C64.4623 13.231 62.9287 13.9006 61.4203 14.5884L61.8352 15.4983ZM71.0481 11.6577C72.5951 11.0715 74.1655 10.5051 75.7592 9.96016L75.4357 9.01395C73.8316 9.56249 72.2509 10.1325 70.6938 10.7225L71.0481 11.6577ZM80.5099 8.42123C82.0856 7.93887 83.6827 7.47752 85.3012 7.03845L85.0394 6.07333C83.4105 6.51523 81.8031 6.97955 80.2172 7.46503L80.5099 8.42123ZM90.1495 5.80625C91.7595 5.42436 93.3895 5.06459 95.0395 4.72812L94.8396 3.74829C93.1793 4.08688 91.5389 4.44892 89.9187 4.83325L90.1495 5.80625ZM99.9344 3.80943C101.563 3.5299 103.211 3.2731 104.877 3.04007L104.738 2.04971C103.062 2.28417 101.404 2.54256 99.7653 2.82383L99.9344 3.80943ZM109.847 2.4224C111.483 2.2444 113.135 2.0893 114.805 1.95803L114.727 0.961102C113.047 1.09316 111.384 1.24919 109.739 1.42827L109.847 2.4224ZM119.805 1.63953C121.453 1.55897 123.116 1.50156 124.796 1.46816L124.776 0.468362C123.087 0.501953 121.414 0.559688 119.756 0.640728L119.805 1.63953ZM129.786 1.43999C131.446 1.45408 133.121 1.49157 134.811 1.55322L134.847 0.553884C133.148 0.491896 131.464 0.454198 129.794 0.440022L129.786 1.43999ZM139.773 1.80175C141.427 1.90692 143.095 2.03517 144.776 2.18718L144.866 1.19124C143.176 1.03843 141.5 0.909502 139.837 0.803761L139.773 1.80175ZM149.734 2.70037C151.376 2.89166 153.03 3.10552 154.697 3.34256L154.838 2.35252C153.163 2.1143 151.5 1.89936 149.85 1.70709L149.734 2.70037ZM159.64 4.10794C161.267 4.38019 162.905 4.67444 164.554 4.99123L164.743 4.00917C163.086 3.69089 161.44 3.39524 159.805 3.12166L159.64 4.10794ZM169.467 5.99431C171.076 6.34246 172.696 6.71198 174.327 7.10335L174.56 6.13096C172.922 5.73785 171.295 5.36666 169.678 5.01691L169.467 5.99431ZM179.194 8.32839C180.786 8.74766 182.388 9.18767 184 9.64886L184.275 8.68745C182.656 8.22433 181.048 7.78244 179.449 7.36136L179.194 8.32839ZM188.809 11.0793C190.384 11.5654 191.968 12.0716 193.561 12.5984L193.875 11.649C192.275 11.1201 190.685 10.6118 189.104 10.1238L188.809 11.0793ZM198.301 14.2173C199.096 14.4972 199.893 14.7823 200.692 15.0724L201.033 14.1325C200.231 13.8412 199.431 13.5551 198.634 13.2741L198.301 14.2173Z" fill="#2B62A3"/>
</svg>
