<svg width="241" height="67" viewBox="0 0 241 67" fill="none" xmlns="http://www.w3.org/2000/svg">
<path d="M220.859 37.7793C219.623 37.7793 218.415 37.4127 217.387 36.726C216.359 36.0392 215.558 35.0631 215.085 33.9211C214.612 32.779 214.488 31.5224 214.729 30.31C214.971 29.0976 215.566 27.984 216.44 27.1099C217.314 26.2358 218.428 25.6405 219.64 25.3994C220.852 25.1582 222.109 25.282 223.251 25.7551C224.393 26.2281 225.369 27.0292 226.056 28.057C226.743 29.0848 227.109 30.2932 227.109 31.5293C227.107 33.1863 226.448 34.7749 225.277 35.9465C224.105 37.1182 222.516 37.7773 220.859 37.7793ZM220.859 27.7793C220.118 27.7793 219.393 27.9992 218.776 28.4113C218.159 28.8233 217.679 29.409 217.395 30.0942C217.111 30.7795 217.037 31.5335 217.181 32.2609C217.326 32.9883 217.683 33.6565 218.208 34.181C218.732 34.7054 219.4 35.0626 220.128 35.2072C220.855 35.3519 221.609 35.2777 222.294 34.9938C222.98 34.71 223.565 34.2294 223.977 33.6127C224.389 32.996 224.609 32.271 224.609 31.5293C224.608 30.535 224.213 29.5818 223.51 28.8787C222.807 28.1757 221.854 27.7803 220.859 27.7793Z" fill="white"/>
<path d="M220.859 52.7793L210.314 40.343C210.168 40.1563 210.023 39.9684 209.879 39.7793C208.078 37.4065 207.105 34.5083 207.109 31.5293C207.109 27.8826 208.558 24.3852 211.137 21.8066C213.715 19.228 217.213 17.7793 220.859 17.7793C224.506 17.7793 228.003 19.228 230.582 21.8066C233.161 24.3852 234.609 27.8826 234.609 31.5293C234.614 34.507 233.641 37.4039 231.841 39.7755L231.839 39.7793C231.839 39.7793 231.464 40.2718 231.408 40.338L220.859 52.7793ZM211.874 38.273C211.877 38.273 212.167 38.658 212.233 38.7405L220.859 48.9143L229.497 38.7268C229.552 38.658 229.844 38.2705 229.846 38.2693C231.317 36.3307 232.112 33.9631 232.109 31.5293C232.109 28.5456 230.924 25.6841 228.814 23.5743C226.705 21.4646 223.843 20.2793 220.859 20.2793C217.876 20.2793 215.014 21.4646 212.904 23.5743C210.795 25.6841 209.609 28.5456 209.609 31.5293C209.607 33.9646 210.402 36.3336 211.874 38.273Z" fill="white"/>
<path d="M0.208333 64.2792C0.208333 65.752 1.40224 66.9459 2.875 66.9459C4.34776 66.9459 5.54167 65.752 5.54167 64.2792C5.54167 62.8064 4.34776 61.6125 2.875 61.6125C1.40224 61.6125 0.208333 62.8064 0.208333 64.2792ZM198.196 14.6024C198.196 16.0752 199.39 17.2691 200.862 17.2691C202.335 17.2691 203.529 16.0752 203.529 14.6024C203.529 13.1297 202.335 11.9358 200.862 11.9358C199.39 11.9358 198.196 13.1297 198.196 14.6024ZM3.30072 64.5414C3.72127 63.8587 4.16237 63.1658 4.62398 62.4638L3.78845 61.9144C3.32155 62.6244 2.87514 63.3256 2.44928 64.017L3.30072 64.5414ZM7.48793 58.3571C8.44176 57.0622 9.45925 55.7456 10.5401 54.4131L9.76347 53.7831C8.67304 55.1274 7.64603 56.4563 6.68279 57.764L7.48793 58.3571ZM13.7627 50.6105C14.8389 49.3933 15.9657 48.1679 17.143 46.9385L16.4208 46.2469C15.2344 47.4858 14.0985 48.721 13.0135 49.9481L13.7627 50.6105ZM20.6656 43.3978C21.8407 42.2602 23.0585 41.1227 24.3188 39.9886L23.6499 39.2452C22.3805 40.3875 21.1538 41.5333 19.97 42.6793L20.6656 43.3978ZM28.0939 36.7116C29.3533 35.6568 30.65 34.6079 31.9838 33.5675L31.3688 32.779C30.0258 33.8265 28.7201 34.8827 27.4518 35.9449L28.0939 36.7116ZM35.9795 30.56C37.3079 29.5953 38.6693 28.6406 40.0635 27.6984L39.5036 26.8698C38.0999 27.8185 36.7293 28.7796 35.3919 29.7509L35.9795 30.56ZM44.2442 24.9743C45.6386 24.0986 47.063 23.2363 48.5172 22.3894L48.014 21.5253C46.5501 22.3778 45.1161 23.2459 43.7123 24.1274L44.2442 24.9743ZM52.8788 19.9458C54.3335 19.1623 55.8157 18.3949 57.3252 17.6454L56.8805 16.7497C55.361 17.5042 53.869 18.2767 52.4046 19.0654L52.8788 19.9458ZM61.8352 15.4983C63.3337 14.815 64.8573 14.1498 66.4058 13.5042L66.021 12.5812C64.4623 13.231 62.9287 13.9006 61.4203 14.5884L61.8352 15.4983ZM71.0481 11.6577C72.5951 11.0715 74.1655 10.5051 75.7592 9.96016L75.4357 9.01395C73.8316 9.56249 72.2509 10.1325 70.6938 10.7225L71.0481 11.6577ZM80.5099 8.42123C82.0856 7.93887 83.6827 7.47752 85.3012 7.03845L85.0394 6.07333C83.4105 6.51523 81.8031 6.97955 80.2172 7.46503L80.5099 8.42123ZM90.1495 5.80625C91.7595 5.42436 93.3895 5.06459 95.0395 4.72812L94.8396 3.74829C93.1793 4.08688 91.5389 4.44892 89.9187 4.83325L90.1495 5.80625ZM99.9344 3.80943C101.563 3.5299 103.211 3.2731 104.877 3.04007L104.738 2.04971C103.062 2.28417 101.404 2.54256 99.7653 2.82383L99.9344 3.80943ZM109.847 2.4224C111.483 2.2444 113.135 2.0893 114.805 1.95803L114.727 0.961102C113.047 1.09316 111.384 1.24919 109.739 1.42827L109.847 2.4224ZM119.805 1.63953C121.453 1.55897 123.116 1.50156 124.796 1.46816L124.776 0.468362C123.087 0.501953 121.414 0.559688 119.756 0.640728L119.805 1.63953ZM129.786 1.43999C131.446 1.45408 133.121 1.49157 134.811 1.55322L134.847 0.553884C133.148 0.491896 131.464 0.454198 129.794 0.440022L129.786 1.43999ZM139.773 1.80175C141.427 1.90692 143.095 2.03517 144.776 2.18718L144.866 1.19124C143.176 1.03843 141.5 0.909502 139.837 0.803761L139.773 1.80175ZM149.734 2.70037C151.376 2.89166 153.03 3.10552 154.697 3.34256L154.838 2.35252C153.163 2.1143 151.5 1.89936 149.85 1.70709L149.734 2.70037ZM159.64 4.10794C161.267 4.38019 162.905 4.67444 164.554 4.99123L164.743 4.00917C163.086 3.69089 161.44 3.39524 159.805 3.12166L159.64 4.10794ZM169.467 5.99431C171.076 6.34246 172.696 6.71198 174.327 7.10335L174.56 6.13096C172.922 5.73785 171.295 5.36666 169.678 5.01691L169.467 5.99431ZM179.194 8.32839C180.786 8.74766 182.388 9.18767 184 9.64886L184.275 8.68745C182.656 8.22433 181.048 7.78244 179.449 7.36136L179.194 8.32839ZM188.809 11.0793C190.384 11.5654 191.968 12.0716 193.561 12.5984L193.875 11.649C192.275 11.1201 190.685 10.6118 189.104 10.1238L188.809 11.0793ZM198.301 14.2173C199.096 14.4972 199.893 14.7823 200.692 15.0724L201.033 14.1325C200.231 13.8412 199.431 13.5551 198.634 13.2741L198.301 14.2173Z" fill="#2B62A3"/>
</svg>
