<svg width="204" height="68" viewBox="0 0 204 68" fill="none" xmlns="http://www.w3.org/2000/svg">
<path d="M203.999 64.4511C203.999 65.9238 202.805 67.1177 201.332 67.1177C199.859 67.1177 198.665 65.9238 198.665 64.4511C198.665 62.9783 199.859 61.7844 201.332 61.7844C202.805 61.7844 203.999 62.9783 203.999 64.4511ZM6.0114 14.7743C6.0114 16.2471 4.81749 17.441 3.34473 17.441C1.87196 17.441 0.678055 16.2471 0.678055 14.7743C0.678055 13.3016 1.87196 12.1076 3.34473 12.1076C4.81749 12.1076 6.0114 13.3016 6.0114 14.7743ZM200.906 64.7133C200.486 64.0305 200.045 63.3376 199.583 62.6357L200.419 62.0863C200.885 62.7962 201.332 63.4975 201.758 64.1888L200.906 64.7133ZM196.719 58.5289C195.765 57.2341 194.748 55.9174 193.667 54.585L194.444 53.955C195.534 55.2993 196.561 56.6282 197.524 57.9359L196.719 58.5289ZM190.444 50.7824C189.368 49.5652 188.241 48.3398 187.064 47.1104L187.786 46.4188C188.973 47.6577 190.109 48.8928 191.194 50.12L190.444 50.7824ZM183.541 43.5696C182.366 42.4321 181.149 41.2946 179.888 40.1605L180.557 39.4171C181.827 40.5593 183.053 41.7051 184.237 42.8512L183.541 43.5696ZM176.113 36.8834C174.854 35.8287 173.557 34.7797 172.223 33.7394L172.838 32.9509C174.181 33.9984 175.487 35.0546 176.755 36.1168L176.113 36.8834ZM168.228 30.7319C166.899 29.7672 165.538 28.8125 164.144 27.8703L164.703 27.0417C166.107 27.9903 167.478 28.9515 168.815 29.9227L168.228 30.7319ZM159.963 25.1461C158.568 24.2705 157.144 23.4082 155.69 22.5613L156.193 21.6972C157.657 22.5497 159.091 23.4177 160.495 24.2993L159.963 25.1461ZM151.328 20.1177C149.874 19.3342 148.391 18.5668 146.882 17.8173L147.327 16.9216C148.846 17.6761 150.338 18.4486 151.802 19.2373L151.328 20.1177ZM142.372 15.6702C140.873 14.9869 139.35 14.3216 137.801 13.6761L138.186 12.7531C139.745 13.4029 141.278 14.0725 142.787 14.7603L142.372 15.6702ZM133.159 11.8295C131.612 11.2433 130.041 10.677 128.448 10.132L128.771 9.18583C130.375 9.73436 131.956 10.3044 133.513 10.8944L133.159 11.8295ZM123.697 8.5931C122.121 8.11075 120.524 7.6494 118.906 7.21033L119.168 6.24521C120.797 6.6871 122.404 7.15143 123.99 7.63691L123.697 8.5931ZM114.058 5.97812C112.448 5.59623 110.818 5.23647 109.168 4.9L109.367 3.92016C111.028 4.25876 112.668 4.6208 114.288 5.00512L114.058 5.97812ZM104.273 3.9813C102.644 3.70177 100.996 3.44497 99.3301 3.21194L99.4687 2.22159C101.145 2.45605 102.803 2.71444 104.442 2.99571L104.273 3.9813ZM94.3602 2.59428C92.7245 2.41628 91.0718 2.26118 89.4021 2.1299L89.4805 1.13298C91.1601 1.26504 92.8228 1.42107 94.4684 1.60015L94.3602 2.59428ZM84.4022 1.81141C82.7543 1.73084 81.0906 1.67344 79.411 1.64004L79.4309 0.640237C81.1201 0.673828 82.7935 0.731563 84.451 0.812603L84.4022 1.81141ZM74.4213 1.61186C72.7611 1.62596 71.0861 1.66345 69.3963 1.72509L69.3599 0.725759C71.059 0.663771 72.7433 0.626073 74.4128 0.611897L74.4213 1.61186ZM64.4337 1.97362C62.7797 2.0788 61.1121 2.20704 59.4308 2.35905L59.3408 1.36311C61.0309 1.21031 62.7074 1.08138 64.3702 0.975636L64.4337 1.97362ZM54.4726 2.87225C52.8309 3.06353 51.1767 3.27739 49.5099 3.51444L49.3691 2.5244C51.0442 2.28617 52.7068 2.07123 54.3568 1.87897L54.4726 2.87225ZM44.5668 4.27981C42.9404 4.55207 41.3023 4.84632 39.6527 5.1631L39.4641 4.18105C41.1215 3.86277 42.7674 3.56711 44.4017 3.29353L44.5668 4.27981ZM34.7405 6.16618C33.131 6.51433 31.5108 6.88385 29.8799 7.27523L29.6466 6.30284C31.2847 5.90972 32.9122 5.53853 34.5291 5.18878L34.7405 6.16618ZM25.0129 8.50026C23.4209 8.91953 21.819 9.35954 20.2073 9.82073L19.9322 8.85932C21.5507 8.3962 23.1593 7.95432 24.7582 7.53324L25.0129 8.50026ZM15.3981 11.2512C13.8232 11.7373 12.2392 12.2435 10.6461 12.7703L10.3321 11.8208C11.9316 11.292 13.5219 10.7837 15.1031 10.2956L15.3981 11.2512ZM5.90565 14.3892C5.11113 14.6691 4.31438 14.9541 3.5154 15.2443L3.17406 14.3043C3.97603 14.0131 4.77579 13.727 5.57335 13.446L5.90565 14.3892Z" fill="#2B62A3"/>
</svg>
