<svg width="243" height="68" viewBox="0 0 243 68" fill="none" xmlns="http://www.w3.org/2000/svg">
<path d="M20.8594 25.2793C19.6232 25.2793 18.4149 24.9127 17.3871 24.226C16.3593 23.5392 15.5582 22.5631 15.0851 21.4211C14.6121 20.279 14.4883 19.0224 14.7295 17.81C14.9706 16.5976 15.5659 15.484 16.44 14.6099C17.314 13.7358 18.4277 13.1405 19.6401 12.8994C20.8524 12.6582 22.1091 12.782 23.2512 13.2551C24.3932 13.7281 25.3693 14.5292 26.0561 15.557C26.7428 16.5848 27.1094 17.7932 27.1094 19.0293C27.1074 20.6863 26.4483 22.2749 25.2766 23.4465C24.1049 24.6182 22.5164 25.2773 20.8594 25.2793ZM20.8594 15.2793C20.1177 15.2793 19.3927 15.4992 18.776 15.9113C18.1593 16.3233 17.6787 16.909 17.3948 17.5942C17.111 18.2795 17.0367 19.0335 17.1814 19.7609C17.3261 20.4883 17.6833 21.1565 18.2077 21.681C18.7322 22.2054 19.4004 22.5626 20.1278 22.7072C20.8552 22.8519 21.6092 22.7777 22.2944 22.4938C22.9797 22.21 23.5653 21.7294 23.9774 21.1127C24.3894 20.496 24.6094 19.771 24.6094 19.0293C24.6084 18.035 24.213 17.0818 23.5099 16.3787C22.8069 15.6757 21.8536 15.2803 20.8594 15.2793Z" fill="white"/>
<path d="M20.8594 40.2793L10.3144 27.843C10.1679 27.6563 10.0229 27.4684 9.87939 27.2793C8.07812 24.9065 7.10502 22.0083 7.10939 19.0293C7.10939 15.3826 8.55805 11.8852 11.1367 9.30658C13.7153 6.72795 17.2127 5.2793 20.8594 5.2793C24.5061 5.2793 28.0035 6.72795 30.5821 9.30658C33.1607 11.8852 34.6094 15.3826 34.6094 19.0293C34.6138 22.007 33.6411 24.9039 31.8406 27.2755L31.8394 27.2793C31.8394 27.2793 31.4644 27.7718 31.4081 27.838L20.8594 40.2793ZM11.8744 25.773C11.8769 25.773 12.1669 26.158 12.2331 26.2405L20.8594 36.4143L29.4969 26.2268C29.5519 26.158 29.8444 25.7705 29.8456 25.7693C31.3171 23.8307 32.1123 21.4631 32.1094 19.0293C32.1094 16.0456 30.9241 13.1841 28.8143 11.0743C26.7046 8.96456 23.8431 7.7793 20.8594 7.7793C17.8757 7.7793 15.0142 8.96456 12.9044 11.0743C10.7947 13.1841 9.60939 16.0456 9.60939 19.0293C9.60677 21.4646 10.4016 23.8336 11.8744 25.773Z" fill="white"/>
<path d="M242.999 64.4511C242.999 65.9238 241.805 67.1177 240.332 67.1177C238.859 67.1177 237.665 65.9238 237.665 64.4511C237.665 62.9783 238.859 61.7844 240.332 61.7844C241.805 61.7844 242.999 62.9783 242.999 64.4511ZM45.0114 14.7743C45.0114 16.2471 43.8175 17.441 42.3447 17.441C40.872 17.441 39.6781 16.2471 39.6781 14.7743C39.6781 13.3016 40.872 12.1076 42.3447 12.1076C43.8175 12.1076 45.0114 13.3016 45.0114 14.7743ZM239.906 64.7133C239.486 64.0305 239.045 63.3376 238.583 62.6357L239.419 62.0863C239.885 62.7962 240.332 63.4975 240.758 64.1888L239.906 64.7133ZM235.719 58.5289C234.765 57.2341 233.748 55.9174 232.667 54.585L233.444 53.955C234.534 55.2993 235.561 56.6282 236.524 57.9359L235.719 58.5289ZM229.444 50.7824C228.368 49.5652 227.241 48.3398 226.064 47.1104L226.786 46.4188C227.973 47.6577 229.109 48.8928 230.194 50.12L229.444 50.7824ZM222.541 43.5696C221.366 42.4321 220.149 41.2946 218.888 40.1605L219.557 39.4171C220.827 40.5593 222.053 41.7051 223.237 42.8512L222.541 43.5696ZM215.113 36.8834C213.854 35.8287 212.557 34.7797 211.223 33.7394L211.838 32.9509C213.181 33.9984 214.487 35.0546 215.755 36.1168L215.113 36.8834ZM207.228 30.7319C205.899 29.7672 204.538 28.8125 203.144 27.8703L203.703 27.0417C205.107 27.9903 206.478 28.9515 207.815 29.9227L207.228 30.7319ZM198.963 25.1461C197.568 24.2705 196.144 23.4082 194.69 22.5613L195.193 21.6972C196.657 22.5497 198.091 23.4177 199.495 24.2993L198.963 25.1461ZM190.328 20.1177C188.874 19.3342 187.391 18.5668 185.882 17.8173L186.327 16.9216C187.846 17.6761 189.338 18.4486 190.802 19.2373L190.328 20.1177ZM181.372 15.6702C179.873 14.9869 178.35 14.3216 176.801 13.6761L177.186 12.7531C178.745 13.4029 180.278 14.0725 181.787 14.7603L181.372 15.6702ZM172.159 11.8295C170.612 11.2433 169.041 10.677 167.448 10.132L167.771 9.18583C169.375 9.73436 170.956 10.3044 172.513 10.8944L172.159 11.8295ZM162.697 8.5931C161.121 8.11075 159.524 7.6494 157.906 7.21033L158.168 6.24521C159.797 6.6871 161.404 7.15143 162.99 7.63691L162.697 8.5931ZM153.058 5.97812C151.448 5.59623 149.818 5.23647 148.168 4.9L148.367 3.92016C150.028 4.25876 151.668 4.6208 153.288 5.00512L153.058 5.97812ZM143.273 3.9813C141.644 3.70177 139.996 3.44497 138.33 3.21194L138.469 2.22159C140.145 2.45605 141.803 2.71444 143.442 2.99571L143.273 3.9813ZM133.36 2.59428C131.725 2.41628 130.072 2.26118 128.402 2.1299L128.48 1.13298C130.16 1.26504 131.823 1.42107 133.468 1.60015L133.36 2.59428ZM123.402 1.81141C121.754 1.73084 120.091 1.67344 118.411 1.64004L118.431 0.640237C120.12 0.673828 121.793 0.731563 123.451 0.812603L123.402 1.81141ZM113.421 1.61186C111.761 1.62596 110.086 1.66345 108.396 1.72509L108.36 0.725759C110.059 0.663771 111.743 0.626073 113.413 0.611897L113.421 1.61186ZM103.434 1.97362C101.78 2.0788 100.112 2.20704 98.4308 2.35905L98.3408 1.36311C100.031 1.21031 101.707 1.08138 103.37 0.975636L103.434 1.97362ZM93.4726 2.87225C91.8309 3.06353 90.1767 3.27739 88.5099 3.51444L88.3691 2.5244C90.0442 2.28617 91.7068 2.07123 93.3568 1.87897L93.4726 2.87225ZM83.5668 4.27981C81.9404 4.55207 80.3023 4.84632 78.6527 5.1631L78.4641 4.18105C80.1215 3.86277 81.7674 3.56711 83.4017 3.29353L83.5668 4.27981ZM73.7405 6.16618C72.131 6.51433 70.5108 6.88385 68.8799 7.27523L68.6466 6.30284C70.2847 5.90972 71.9122 5.53853 73.5291 5.18878L73.7405 6.16618ZM64.0129 8.50026C62.4209 8.91953 60.819 9.35954 59.2073 9.82073L58.9322 8.85932C60.5507 8.3962 62.1593 7.95432 63.7582 7.53324L64.0129 8.50026ZM54.3981 11.2512C52.8232 11.7373 51.2392 12.2435 49.6461 12.7703L49.3321 11.8208C50.9316 11.292 52.5219 10.7837 54.1031 10.2956L54.3981 11.2512ZM44.9057 14.3892C44.1111 14.6691 43.3144 14.9541 42.5154 15.2443L42.1741 14.3043C42.976 14.0131 43.7758 13.727 44.5733 13.446L44.9057 14.3892Z" fill="#2B62A3"/>
</svg>
