<svg width="263" height="176" viewBox="0 0 263 176" fill="none" xmlns="http://www.w3.org/2000/svg">
<path d="M20.8594 158.279C19.6232 158.279 18.4149 157.913 17.3871 157.226C16.3593 156.539 15.5582 155.563 15.0851 154.421C14.6121 153.279 14.4883 152.022 14.7295 150.81C14.9706 149.598 15.5659 148.484 16.44 147.61C17.314 146.736 18.4277 146.141 19.6401 145.899C20.8524 145.658 22.1091 145.782 23.2512 146.255C24.3932 146.728 25.3693 147.529 26.0561 148.557C26.7428 149.585 27.1094 150.793 27.1094 152.029C27.1074 153.686 26.4483 155.275 25.2766 156.447C24.1049 157.618 22.5164 158.277 20.8594 158.279ZM20.8594 148.279C20.1177 148.279 19.3927 148.499 18.776 148.911C18.1593 149.323 17.6787 149.909 17.3948 150.594C17.111 151.279 17.0367 152.033 17.1814 152.761C17.3261 153.488 17.6833 154.157 18.2077 154.681C18.7322 155.205 19.4004 155.563 20.1278 155.707C20.8552 155.852 21.6092 155.778 22.2944 155.494C22.9797 155.21 23.5653 154.729 23.9774 154.113C24.3894 153.496 24.6094 152.771 24.6094 152.029C24.6084 151.035 24.213 150.082 23.5099 149.379C22.8069 148.676 21.8536 148.28 20.8594 148.279Z" fill="white"/>
<path d="M20.8594 173.279L10.3144 160.843C10.1679 160.656 10.0229 160.468 9.87939 160.279C8.07812 157.907 7.10502 155.008 7.10939 152.029C7.10939 148.383 8.55805 144.885 11.1367 142.307C13.7153 139.728 17.2127 138.279 20.8594 138.279C24.5061 138.279 28.0035 139.728 30.5821 142.307C33.1607 144.885 34.6094 148.383 34.6094 152.029C34.6138 155.007 33.6411 157.904 31.8406 160.276L31.8394 160.279C31.8394 160.279 31.4644 160.772 31.4081 160.838L20.8594 173.279ZM11.8744 158.773C11.8769 158.773 12.1669 159.158 12.2331 159.241L20.8594 169.414L29.4969 159.227C29.5519 159.158 29.8444 158.771 29.8456 158.769C31.3171 156.831 32.1123 154.463 32.1094 152.029C32.1094 149.046 30.9241 146.184 28.8143 144.074C26.7046 141.965 23.8431 140.779 20.8594 140.779C17.8757 140.779 15.0142 141.965 12.9044 144.074C10.7947 146.184 9.60939 149.046 9.60939 152.029C9.60677 154.465 10.4016 156.834 11.8744 158.773Z" fill="white"/>
<path d="M27.3794 135.864C27.2069 137.327 25.8814 138.373 24.4188 138.2C22.9561 138.028 21.9103 136.702 22.0828 135.24C22.2553 133.777 23.5809 132.731 25.0435 132.904C26.5061 133.076 27.552 134.402 27.3794 135.864ZM262.382 29.8869C262.21 31.3495 260.884 32.3954 259.421 32.2228C257.959 32.0503 256.913 30.7248 257.085 29.2622C257.258 27.7995 258.584 26.7537 260.046 26.9262C261.509 27.0987 262.555 28.4243 262.382 29.8869ZM259.597 30.0556C258.778 29.8233 257.96 29.596 257.144 29.3737L257.407 28.4089C258.226 28.6321 259.047 28.8603 259.87 29.0935L259.597 30.0556ZM252.273 28.0992C250.658 27.694 249.05 27.3084 247.451 26.942L247.675 25.9672C249.281 26.3352 250.894 26.7224 252.516 27.1292L252.273 28.0992ZM242.5 25.8631C240.858 25.5238 239.224 25.2047 237.599 24.9057L237.78 23.9222C239.412 24.2226 241.053 24.543 242.703 24.8838L242.5 25.8631ZM232.653 24.0523C230.988 23.7843 229.333 23.5373 227.687 23.3109L227.823 22.3203C229.477 22.5477 231.14 22.7958 232.812 23.065L232.653 24.0523ZM222.74 22.6891C221.057 22.4976 219.385 22.3277 217.723 22.1789L217.812 21.1829C219.482 21.3324 221.162 21.5031 222.853 21.6955L222.74 22.6891ZM212.767 21.7958C211.075 21.6857 209.393 21.5975 207.723 21.5309L207.763 20.5317C209.442 20.5986 211.132 20.6872 212.832 20.7979L212.767 21.7958ZM202.738 21.3949C201.049 21.3703 199.371 21.3677 197.705 21.3866L197.694 20.3866C199.369 20.3677 201.055 20.3703 202.752 20.395L202.738 21.3949ZM192.709 21.5084C191.025 21.5716 189.353 21.6568 187.694 21.7633L187.63 20.7654C189.298 20.6582 190.979 20.5726 192.671 20.5092L192.709 21.5084ZM182.704 22.151C181.029 22.3039 179.367 22.4787 177.716 22.6747L177.598 21.6817C179.258 21.4846 180.929 21.3089 182.613 21.1552L182.704 22.151ZM172.753 23.3334C171.089 23.5774 169.439 23.843 167.803 24.1296L167.63 23.1446C169.276 22.8564 170.935 22.5894 172.607 22.344L172.753 23.3334ZM162.883 25.0615C161.236 25.3972 159.603 25.7541 157.984 26.1316L157.757 25.1577C159.385 24.7782 161.027 24.4192 162.683 24.0817L162.883 25.0615ZM153.126 27.3358C151.5 27.763 149.888 28.2109 148.291 28.6787L148.01 27.719C149.616 27.2486 151.237 26.7982 152.872 26.3686L153.126 27.3358ZM143.512 30.1514C141.912 30.669 140.326 31.2065 138.756 31.7633L138.422 30.8207C140.001 30.2609 141.595 29.7204 143.204 29.1999L143.512 30.1514ZM134.071 33.4979C132.5 34.104 130.946 34.7292 129.407 35.3726L129.021 34.45C130.569 33.803 132.132 33.1744 133.71 32.565L134.071 33.4979ZM124.825 37.3625C123.291 38.0538 121.773 38.7631 120.271 39.4895L119.835 38.5893C121.345 37.859 122.871 37.1458 124.414 36.4508L124.825 37.3625ZM115.796 41.7287C114.304 42.5005 112.829 43.2889 111.371 44.0932L110.888 43.2176C112.354 42.409 113.837 41.6164 115.337 40.8405L115.796 41.7287ZM107.015 46.5713C105.568 47.4192 104.14 48.2825 102.728 49.1601L102.2 48.3108C103.619 47.4287 105.055 46.561 106.509 45.7086L107.015 46.5713ZM98.4993 51.8657C97.1015 52.7855 95.7216 53.719 94.3597 54.6654L93.7891 53.8442C95.1579 52.8931 96.5447 51.9548 97.9496 51.0304L98.4993 51.8657ZM90.2669 57.5862C88.914 58.5775 87.5797 59.581 86.2643 60.5957L85.6535 59.8039C86.9754 58.7842 88.3162 57.7758 89.6759 56.7796L90.2669 57.5862ZM82.332 63.706C81.0256 64.7654 79.7389 65.8353 78.4718 66.9145L77.8234 66.1532C79.0965 65.0688 80.3895 63.9938 81.7021 62.9293L82.332 63.706ZM74.7065 70.1993C73.4486 71.3232 72.2114 72.4556 70.9949 73.5953L70.3112 72.8655C71.5334 71.7205 72.7764 70.5828 74.0403 69.4536L74.7065 70.1993ZM67.3779 77.064C66.1791 78.2407 65.0019 79.4237 63.8463 80.6116L63.1295 79.9144C64.2904 78.721 65.473 77.5325 66.6773 76.3504L67.3779 77.064ZM60.382 84.256C59.2373 85.4883 58.1155 86.7244 57.0168 87.9628L56.2687 87.2991C57.3725 86.055 58.4994 84.8133 59.6493 83.5754L60.382 84.256ZM53.7343 91.7487C52.6408 93.0395 51.5721 94.3311 50.5284 95.6221L49.7507 94.9934C50.7993 93.6965 51.8728 92.3989 52.9713 91.1023L53.7343 91.7487ZM47.4251 99.5518C46.3955 100.887 45.3928 102.219 44.417 103.547L43.6111 102.955C44.5915 101.621 45.5989 100.282 46.6332 98.9411L47.4251 99.5518ZM41.4846 107.639C40.5132 109.029 39.5719 110.412 38.6605 111.785L37.8272 111.233C38.743 109.852 39.6889 108.463 40.6649 107.066L41.4846 107.639ZM35.9481 115.986C35.0459 117.422 34.1776 118.846 33.3432 120.254L32.4829 119.744C33.3217 118.329 34.1945 116.898 35.1013 115.454L35.9481 115.986ZM30.8377 124.617C30.0054 126.115 29.2135 127.59 28.4621 129.041L27.5741 128.581C28.3301 127.122 29.1266 125.637 29.9636 124.131L30.8377 124.617ZM26.2273 133.53C25.8684 134.282 25.5213 135.025 25.186 135.76L24.2763 135.344C24.614 134.605 24.9636 133.856 25.3249 133.099L26.2273 133.53Z" fill="#2B62A3"/>
</svg>
