<svg width="241" height="162" viewBox="0 0 241 162" fill="none" xmlns="http://www.w3.org/2000/svg">
<path d="M5.37944 135.864C5.20693 137.327 3.88138 138.373 2.41876 138.2C0.956136 138.028 -0.0897007 136.702 0.082817 135.24C0.255335 133.777 1.58088 132.731 3.0435 132.904C4.50612 133.076 5.55196 134.402 5.37944 135.864ZM240.382 29.8869C240.21 31.3495 238.884 32.3954 237.421 32.2228C235.959 32.0503 234.913 30.7248 235.085 29.2622C235.258 27.7995 236.584 26.7537 238.046 26.9262C239.509 27.0987 240.555 28.4243 240.382 29.8869ZM237.597 30.0556C236.778 29.8233 235.96 29.596 235.144 29.3737L235.407 28.4089C236.226 28.6321 237.047 28.8603 237.87 29.0935L237.597 30.0556ZM230.273 28.0992C228.658 27.694 227.05 27.3084 225.451 26.942L225.675 25.9672C227.281 26.3352 228.894 26.7224 230.516 27.1292L230.273 28.0992ZM220.5 25.8631C218.858 25.5238 217.224 25.2047 215.599 24.9057L215.78 23.9222C217.412 24.2226 219.053 24.543 220.703 24.8838L220.5 25.8631ZM210.653 24.0523C208.988 23.7843 207.333 23.5373 205.687 23.3109L205.823 22.3203C207.477 22.5477 209.14 22.7958 210.812 23.065L210.653 24.0523ZM200.74 22.6891C199.057 22.4976 197.385 22.3277 195.723 22.1789L195.812 21.1829C197.482 21.3324 199.162 21.5031 200.853 21.6955L200.74 22.6891ZM190.767 21.7958C189.075 21.6857 187.393 21.5975 185.723 21.5309L185.763 20.5317C187.442 20.5986 189.132 20.6872 190.832 20.7979L190.767 21.7958ZM180.738 21.3949C179.049 21.3703 177.371 21.3677 175.705 21.3866L175.694 20.3866C177.369 20.3677 179.055 20.3703 180.752 20.395L180.738 21.3949ZM170.709 21.5084C169.025 21.5716 167.353 21.6568 165.694 21.7633L165.63 20.7654C167.298 20.6582 168.979 20.5726 170.671 20.5092L170.709 21.5084ZM160.704 22.151C159.029 22.3039 157.367 22.4787 155.716 22.6747L155.598 21.6817C157.258 21.4846 158.929 21.3089 160.613 21.1552L160.704 22.151ZM150.753 23.3334C149.089 23.5774 147.439 23.843 145.803 24.1296L145.63 23.1446C147.276 22.8564 148.935 22.5894 150.607 22.344L150.753 23.3334ZM140.883 25.0615C139.236 25.3972 137.603 25.7541 135.984 26.1316L135.757 25.1577C137.385 24.7782 139.027 24.4192 140.683 24.0817L140.883 25.0615ZM131.126 27.3358C129.5 27.763 127.888 28.2109 126.291 28.6787L126.01 27.719C127.616 27.2486 129.237 26.7982 130.872 26.3686L131.126 27.3358ZM121.512 30.1514C119.912 30.669 118.326 31.2065 116.756 31.7633L116.422 30.8207C118.001 30.2609 119.595 29.7204 121.204 29.1999L121.512 30.1514ZM112.071 33.4979C110.5 34.104 108.946 34.7292 107.407 35.3726L107.021 34.45C108.569 33.803 110.132 33.1744 111.71 32.565L112.071 33.4979ZM102.825 37.3625C101.291 38.0538 99.7726 38.7631 98.2708 39.4895L97.8353 38.5893C99.3452 37.859 100.871 37.1458 102.414 36.4508L102.825 37.3625ZM93.7961 41.7287C92.3043 42.5005 90.8292 43.2889 89.3709 44.0932L88.8879 43.2176C90.3539 42.409 91.8368 41.6164 93.3367 40.8405L93.7961 41.7287ZM85.0145 46.5713C83.5684 47.4192 82.1397 48.2825 80.7282 49.1601L80.2002 48.3108C81.6189 47.4287 83.0551 46.561 84.5087 45.7086L85.0145 46.5713ZM76.4993 51.8657C75.1015 52.7855 73.7216 53.719 72.3597 54.6654L71.7891 53.8442C73.1579 52.8931 74.5447 51.9548 75.9496 51.0304L76.4993 51.8657ZM68.2669 57.5862C66.914 58.5775 65.5797 59.581 64.2643 60.5957L63.6535 59.8039C64.9754 58.7842 66.3162 57.7758 67.6759 56.7796L68.2669 57.5862ZM60.332 63.706C59.0256 64.7654 57.7389 65.8353 56.4718 66.9145L55.8234 66.1532C57.0965 65.0688 58.3895 63.9938 59.7021 62.9293L60.332 63.706ZM52.7065 70.1993C51.4486 71.3232 50.2114 72.4556 48.9949 73.5953L48.3112 72.8655C49.5334 71.7205 50.7764 70.5828 52.0403 69.4536L52.7065 70.1993ZM45.3779 77.064C44.1791 78.2407 43.0019 79.4237 41.8463 80.6116L41.1295 79.9144C42.2904 78.721 43.473 77.5325 44.6773 76.3504L45.3779 77.064ZM38.382 84.256C37.2373 85.4883 36.1155 86.7244 35.0168 87.9628L34.2687 87.2991C35.3725 86.055 36.4994 84.8133 37.6493 83.5754L38.382 84.256ZM31.7343 91.7487C30.6408 93.0395 29.5721 94.3311 28.5284 95.6221L27.7507 94.9934C28.7993 93.6965 29.8728 92.3989 30.9713 91.1023L31.7343 91.7487ZM25.4251 99.5518C24.3955 100.887 23.3928 102.219 22.417 103.547L21.6111 102.955C22.5915 101.621 23.5989 100.282 24.6332 98.9411L25.4251 99.5518ZM19.4846 107.639C18.5132 109.029 17.5719 110.412 16.6605 111.785L15.8272 111.233C16.743 109.852 17.6889 108.463 18.6649 107.066L19.4846 107.639ZM13.9481 115.986C13.0459 117.422 12.1776 118.846 11.3432 120.254L10.4829 119.744C11.3217 118.329 12.1945 116.898 13.1013 115.454L13.9481 115.986ZM8.83768 124.617C8.00536 126.115 7.21349 127.59 6.46211 129.041L5.57411 128.581C6.33008 127.122 7.12663 125.637 7.96364 124.131L8.83768 124.617ZM4.22734 133.53C3.86844 134.282 3.52131 135.025 3.18599 135.76L2.27628 135.344C2.61403 134.605 2.9636 133.856 3.32495 133.099L4.22734 133.53Z" fill="#2B62A3"/>
</svg>
