<svg width="249" height="183" viewBox="0 0 249 183" fill="none" xmlns="http://www.w3.org/2000/svg">
<path d="M228.859 165.279C227.623 165.279 226.415 164.913 225.387 164.226C224.359 163.539 223.558 162.563 223.085 161.421C222.612 160.279 222.488 159.022 222.729 157.81C222.971 156.598 223.566 155.484 224.44 154.61C225.314 153.736 226.428 153.141 227.64 152.899C228.852 152.658 230.109 152.782 231.251 153.255C232.393 153.728 233.369 154.529 234.056 155.557C234.743 156.585 235.109 157.793 235.109 159.029C235.107 160.686 234.448 162.275 233.277 163.447C232.105 164.618 230.516 165.277 228.859 165.279ZM228.859 155.279C228.118 155.279 227.393 155.499 226.776 155.911C226.159 156.323 225.679 156.909 225.395 157.594C225.111 158.279 225.037 159.033 225.181 159.761C225.326 160.488 225.683 161.157 226.208 161.681C226.732 162.205 227.4 162.563 228.128 162.707C228.855 162.852 229.609 162.778 230.294 162.494C230.98 162.21 231.565 161.729 231.977 161.113C232.389 160.496 232.609 159.771 232.609 159.029C232.608 158.035 232.213 157.082 231.51 156.379C230.807 155.676 229.854 155.28 228.859 155.279Z" fill="white"/>
<path d="M228.859 180.279L218.314 167.843C218.168 167.656 218.023 167.468 217.879 167.279C216.078 164.907 215.105 162.008 215.109 159.029C215.109 155.383 216.558 151.885 219.137 149.307C221.715 146.728 225.213 145.279 228.859 145.279C232.506 145.279 236.003 146.728 238.582 149.307C241.161 151.885 242.609 155.383 242.609 159.029C242.614 162.007 241.641 164.904 239.841 167.276L239.839 167.279C239.839 167.279 239.464 167.772 239.408 167.838L228.859 180.279ZM219.874 165.773C219.877 165.773 220.167 166.158 220.233 166.241L228.859 176.414L237.497 166.227C237.552 166.158 237.844 165.771 237.846 165.769C239.317 163.831 240.112 161.463 240.109 159.029C240.109 156.046 238.924 153.184 236.814 151.074C234.705 148.965 231.843 147.779 228.859 147.779C225.876 147.779 223.014 148.965 220.904 151.074C218.795 153.184 217.609 156.046 217.609 159.029C217.607 161.465 218.402 163.834 219.874 165.773Z" fill="white"/>
<path d="M221.226 136.961C221.226 138.434 222.42 139.628 223.893 139.628C225.365 139.628 226.559 138.434 226.559 136.961C226.559 135.488 225.365 134.294 223.893 134.294C222.42 134.294 221.226 135.488 221.226 136.961ZM0.255208 4.18507C0.255208 5.65783 1.44912 6.85173 2.92188 6.85173C4.39463 6.85173 5.58854 5.65783 5.58854 4.18507C5.58854 2.71231 4.39463 1.5184 2.92188 1.5184C1.44912 1.5184 0.255208 2.71231 0.255208 4.18507ZM3.00087 4.67879C3.84238 4.54415 4.68128 4.41424 5.51757 4.28904L5.36951 3.30006C4.5299 3.42576 3.68769 3.55618 2.84288 3.69135L3.00087 4.67879ZM10.504 3.59383C12.1558 3.38067 13.7971 3.18596 15.4281 3.00938L15.3204 2.01519C13.6826 2.19251 12.0345 2.38802 10.376 2.60206L10.504 3.59383ZM20.4715 2.51791C22.1423 2.37329 23.8021 2.24783 25.4507 2.14118L25.3862 1.14327C23.7303 1.25039 22.0633 1.37639 20.3852 1.52164L20.4715 2.51791ZM30.4629 1.87304C32.1478 1.80189 33.8208 1.75053 35.4819 1.71854L35.4627 0.718728C33.7938 0.750862 32.1132 0.80246 30.4207 0.873929L30.4629 1.87304ZM40.4679 1.68046C42.1611 1.68734 43.8417 1.7145 45.5097 1.76148L45.5379 0.761881C43.8618 0.714666 42.1732 0.687378 40.4719 0.680467L40.4679 1.68046ZM50.4762 1.96148C52.1698 2.05033 53.8501 2.15978 55.5171 2.28931L55.5946 1.29232C53.9192 1.16213 52.2305 1.05214 50.5285 0.962855L50.4762 1.96148ZM60.4838 2.73825C62.1639 2.91161 63.8302 3.10552 65.4827 3.31946L65.6111 2.32774C63.95 2.11269 62.2751 1.91777 60.5864 1.74353L60.4838 2.73825ZM70.4306 4.02578C72.095 4.28569 73.7451 4.56606 75.3808 4.86632L75.5613 3.88275C73.9169 3.58089 72.2581 3.29904 70.5848 3.03775L70.4306 4.02578ZM80.2906 5.83583C81.9363 6.18388 83.567 6.5522 85.1828 6.94016L85.4163 5.9678C83.7917 5.57772 82.1521 5.20741 80.4975 4.85747L80.2906 5.83583ZM90.0354 8.17582C91.6584 8.61294 93.266 9.07 94.858 9.54634L95.1446 8.5883C93.5438 8.10933 91.9274 7.64975 90.2954 7.21022L90.0354 8.17582ZM99.6348 11.0481C101.231 11.5744 102.811 12.1202 104.375 12.6847L104.714 11.7441C103.142 11.1765 101.553 10.6276 99.9479 10.0984L99.6348 11.0481ZM109.058 14.4497C110.623 15.0644 112.171 15.698 113.702 16.3496L114.094 15.4295C112.554 14.7742 110.997 14.1371 109.424 13.519L109.058 14.4497ZM118.276 18.372C119.805 19.0735 121.316 19.7931 122.81 20.5299L123.253 19.633C121.75 18.8921 120.23 18.1686 118.693 17.4632L118.276 18.372ZM127.26 22.8015C128.749 23.5873 130.219 24.3903 131.672 25.2095L132.163 24.3385C130.702 23.5147 129.224 22.7073 127.727 21.9172L127.26 22.8015ZM135.99 27.7225C137.432 28.5887 138.857 29.471 140.263 30.3684L140.801 29.5254C139.387 28.6231 137.955 27.7361 136.504 26.8652L135.99 27.7225ZM144.445 33.1163C145.836 34.0575 147.209 35.0133 148.563 35.9829L149.145 35.1698C147.784 34.1951 146.404 33.2342 145.005 32.288L144.445 33.1163ZM152.599 38.9542C153.936 39.9656 155.253 40.9903 156.552 42.0272L157.176 41.2457C155.871 40.2034 154.546 39.1735 153.202 38.1567L152.599 38.9542ZM160.435 45.2096C161.716 46.2868 162.977 47.3756 164.218 48.4749L164.881 47.7262C163.633 46.6213 162.366 45.527 161.079 44.4444L160.435 45.2096ZM167.941 51.855C169.168 52.998 170.376 54.1509 171.563 55.3127L172.263 54.5979C171.069 53.4304 169.856 52.2718 168.622 51.1232L167.941 51.855ZM175.104 58.8622C176.277 60.0673 177.43 61.2806 178.562 62.5008L179.295 61.8206C178.158 60.5946 177 59.3756 175.821 58.1646L175.104 58.8622ZM181.917 66.204C183.034 67.4675 184.13 68.7371 185.205 70.0114L185.969 69.3668C184.89 68.0864 183.788 66.8109 182.666 65.5415L181.917 66.204ZM188.391 73.88C189.443 75.189 190.474 76.5017 191.482 77.8168L192.276 77.2083C191.263 75.8872 190.228 74.5684 189.17 73.2533L188.391 73.88ZM194.496 81.8419C195.488 83.1998 196.458 84.5588 197.404 85.9174L198.224 85.3459C197.274 83.9811 196.3 82.6159 195.303 81.2518L194.496 81.8419ZM200.22 90.0618C201.155 91.4717 202.065 92.8797 202.95 94.284L203.796 93.7507C202.907 92.3399 201.993 90.9255 201.054 89.5092L200.22 90.0618ZM205.572 98.5502C206.438 99.9966 207.278 101.437 208.091 102.871L208.961 102.377C208.144 100.937 207.3 99.4896 206.43 98.0365L205.572 98.5502ZM210.524 107.277C211.326 108.771 212.099 110.255 212.843 111.726L213.735 111.275C212.988 109.797 212.211 108.306 211.405 106.805L210.524 107.277ZM215.045 116.216C215.773 117.748 216.468 119.263 217.132 120.759L218.046 120.354C217.379 118.85 216.679 117.326 215.948 115.787L215.045 116.216ZM219.109 125.386C219.76 126.971 220.374 128.529 220.95 130.058L221.886 129.705C221.306 128.167 220.689 126.599 220.034 125.006L219.109 125.386ZM222.644 134.778C222.912 135.566 223.17 136.345 223.417 137.114L224.369 136.808C224.12 136.034 223.86 135.249 223.59 134.455L222.644 134.778Z" fill="#2B62A3"/>
</svg>
