<svg width="68" height="189" viewBox="0 0 68 189" fill="none" xmlns="http://www.w3.org/2000/svg">
<path d="M20.8613 170.779C19.6252 170.779 18.4168 170.412 17.389 169.725C16.3612 169.039 15.5601 168.063 15.0871 166.921C14.614 165.779 14.4903 164.522 14.7314 163.309C14.9726 162.097 15.5678 160.983 16.4419 160.109C17.316 159.235 18.4296 158.64 19.642 158.399C20.8544 158.158 22.1111 158.282 23.2531 158.755C24.3951 159.228 25.3713 160.029 26.058 161.056C26.7448 162.084 27.1113 163.293 27.1113 164.529C27.1093 166.186 26.4502 167.774 25.2786 168.946C24.1069 170.118 22.5183 170.777 20.8613 170.779ZM20.8613 160.779C20.1197 160.779 19.3946 160.999 18.7779 161.411C18.1613 161.823 17.6806 162.409 17.3968 163.094C17.113 163.779 17.0387 164.533 17.1834 165.26C17.3281 165.988 17.6852 166.656 18.2097 167.18C18.7341 167.705 19.4023 168.062 20.1297 168.207C20.8572 168.351 21.6112 168.277 22.2964 167.993C22.9816 167.71 23.5673 167.229 23.9793 166.612C24.3914 165.996 24.6113 165.27 24.6113 164.529C24.6103 163.535 24.2149 162.581 23.5119 161.878C22.8088 161.175 21.8556 160.78 20.8613 160.779Z" fill="white"/>
<path d="M20.8613 185.779L10.3163 173.343C10.1698 173.156 10.0248 172.968 9.88134 172.779C8.08007 170.406 7.10698 167.508 7.11134 164.529C7.11134 160.882 8.56 157.385 11.1386 154.806C13.7172 152.227 17.2146 150.779 20.8613 150.779C24.5081 150.779 28.0054 152.227 30.5841 154.806C33.1627 157.385 34.6113 160.882 34.6113 164.529C34.6157 167.506 33.6431 170.403 31.8426 172.775L31.8413 172.779C31.8413 172.779 31.4663 173.271 31.4101 173.338L20.8613 185.779ZM11.8763 171.273C11.8788 171.273 12.1688 171.658 12.2351 171.74L20.8613 181.914L29.4988 171.726C29.5538 171.658 29.8463 171.27 29.8476 171.269C31.319 169.33 32.1142 166.963 32.1113 164.529C32.1113 161.545 30.9261 158.684 28.8163 156.574C26.7065 154.464 23.845 153.279 20.8613 153.279C17.8777 153.279 15.0162 154.464 12.9064 156.574C10.7966 158.684 9.61134 161.545 9.61134 164.529C9.60872 166.964 10.4036 169.333 11.8763 171.273Z" fill="white"/>
<path d="M67.528 3.43457C67.528 4.90733 66.3341 6.10124 64.8613 6.10124C63.3886 6.10124 62.1947 4.90733 62.1947 3.43457C62.1947 1.96181 63.3886 0.767904 64.8613 0.767904C66.3341 0.767904 67.528 1.96181 67.528 3.43457ZM25.8542 149.779C25.8542 151.252 24.6603 152.445 23.1875 152.445C21.7147 152.445 20.5208 151.252 20.5208 149.779C20.5208 148.306 21.7147 147.112 23.1875 147.112C24.6603 147.112 25.8542 148.306 25.8542 149.779ZM65.2189 3.78404C64.6993 4.31575 64.1591 4.89789 63.6006 5.53053L62.8509 4.86872C63.4196 4.2245 63.9713 3.62989 64.5037 3.0851L65.2189 3.78404ZM60.5612 9.25272C59.6493 10.4498 58.7065 11.7573 57.7403 13.1751L56.9139 12.612C57.8894 11.1805 58.8425 9.85864 59.7657 8.64673L60.5612 9.25272ZM55.1173 17.2114C54.3025 18.5236 53.4768 19.9086 52.6441 21.3661L51.7758 20.8701C52.6144 19.4022 53.4464 18.0068 54.2677 16.6839L55.1173 17.2114ZM50.3223 25.5899C49.5909 26.9721 48.857 28.409 48.1232 29.9005L47.2259 29.4591C47.964 27.9589 48.7023 26.5132 49.4384 25.1222L50.3223 25.5899ZM46.044 34.2788C45.3898 35.7055 44.7378 37.176 44.0898 38.6899L43.1705 38.2964C43.8218 36.7747 44.4773 35.2965 45.135 33.862L46.044 34.2788ZM42.2435 43.1523C41.6573 44.6182 41.076 46.1209 40.501 47.6601L39.5642 47.3102C40.1419 45.7638 40.7259 44.2541 41.315 42.781L42.2435 43.1523ZM38.859 52.208C38.3371 53.7043 37.8218 55.2323 37.3144 56.7919L36.3635 56.4824C36.8731 54.9162 37.3906 53.3816 37.9148 51.8786L38.859 52.208ZM35.8641 61.4088C35.4029 62.9302 34.9497 64.4795 34.5053 66.0565L33.5428 65.7853C33.989 64.202 34.444 62.6465 34.9071 61.1187L35.8641 61.4088ZM33.2369 70.7285C32.8355 72.2644 32.4427 73.8248 32.0595 75.4099L31.0875 75.1749C31.4722 73.5839 31.8664 72.0174 32.2694 70.4757L33.2369 70.7285ZM30.9666 80.1148C30.6202 81.6687 30.2831 83.2449 29.9561 84.8432L28.9764 84.6428C29.3046 83.0387 29.6429 81.4569 29.9905 79.8973L30.9666 80.1148ZM29.026 89.5951C28.7322 91.1666 28.4483 92.7585 28.1747 94.3707L27.1888 94.2034C27.4633 92.5857 27.7482 90.9884 28.043 89.4114L29.026 89.5951ZM27.4054 99.1392C27.1644 100.714 26.9334 102.307 26.7128 103.919L25.7221 103.783C25.9433 102.166 26.1751 100.568 26.4169 98.9879L27.4054 99.1392ZM26.094 108.721C25.9014 110.312 25.7191 111.92 25.5476 113.546L24.5531 113.441C24.7252 111.81 24.908 110.197 25.1012 108.6L26.094 108.721ZM25.0774 118.345C24.9335 119.935 24.7999 121.541 24.6769 123.163L23.6798 123.088C23.8031 121.461 23.9371 119.85 24.0815 118.255L25.0774 118.345ZM24.3451 128.006C24.2474 129.599 24.16 131.206 24.0834 132.828L23.0845 132.781C23.1614 131.155 23.249 129.543 23.3469 127.945L24.3451 128.006ZM23.8886 137.658C23.8349 139.263 23.7917 140.882 23.7593 142.515L22.7595 142.495C22.792 140.858 22.8353 139.234 22.8891 137.625L23.8886 137.658ZM23.6956 147.338C23.6902 148.148 23.6875 148.962 23.6875 149.779H22.6875C22.6875 148.96 22.6902 148.144 22.6956 147.331L23.6956 147.338Z" fill="#2B62A3"/>
</svg>
