<svg width="48" height="153" viewBox="0 0 48 153" fill="none" xmlns="http://www.w3.org/2000/svg">
<path d="M47.526 3.43457C47.526 4.90733 46.3321 6.10124 44.8594 6.10124C43.3866 6.10124 42.1927 4.90733 42.1927 3.43457C42.1927 1.96181 43.3866 0.767904 44.8594 0.767904C46.3321 0.767904 47.526 1.96181 47.526 3.43457ZM5.85221 149.779C5.85221 151.252 4.65831 152.445 3.18555 152.445C1.71279 152.445 0.518879 151.252 0.518879 149.779C0.518879 148.306 1.71279 147.112 3.18555 147.112C4.65831 147.112 5.85221 148.306 5.85221 149.779ZM45.217 3.78404C44.6973 4.31575 44.1571 4.89789 43.5987 5.53053L42.849 4.86872C43.4177 4.2245 43.9694 3.62989 44.5018 3.0851L45.217 3.78404ZM40.5592 9.25272C39.6473 10.4498 38.7045 11.7573 37.7383 13.1751L36.912 12.612C37.8875 11.1805 38.8405 9.85864 39.7637 8.64673L40.5592 9.25272ZM35.1153 17.2114C34.3006 18.5236 33.4748 19.9086 32.6421 21.3661L31.7738 20.8701C32.6125 19.4022 33.4444 18.0068 34.2657 16.6839L35.1153 17.2114ZM30.3204 25.5899C29.5889 26.9721 28.855 28.409 28.1213 29.9005L27.224 29.4591C27.962 27.9589 28.7004 26.5132 29.4365 25.1222L30.3204 25.5899ZM26.042 34.2788C25.3879 35.7055 24.7359 37.176 24.0878 38.6899L23.1685 38.2964C23.8198 36.7747 24.4753 35.2965 25.133 33.862L26.042 34.2788ZM22.2415 43.1523C21.6553 44.6182 21.074 46.1209 20.499 47.6601L19.5623 47.3102C20.1399 45.7638 20.724 44.2541 21.313 42.781L22.2415 43.1523ZM18.8571 52.208C18.3351 53.7043 17.8199 55.2323 17.3124 56.7919L16.3615 56.4824C16.8711 54.9162 17.3886 53.3816 17.9129 51.8786L18.8571 52.208ZM15.8621 61.4088C15.401 62.9302 14.9478 64.4795 14.5034 66.0565L13.5409 65.7853C13.987 64.202 14.4421 62.6465 14.9051 61.1187L15.8621 61.4088ZM13.235 70.7285C12.8335 72.2644 12.4408 73.8248 12.0575 75.4099L11.0856 75.1749C11.4702 73.5839 11.8645 72.0174 12.2675 70.4757L13.235 70.7285ZM10.9646 80.1148C10.6183 81.6687 10.2812 83.2449 9.95411 84.8432L8.97441 84.6428C9.30266 83.0387 9.64095 81.4569 9.98859 79.8973L10.9646 80.1148ZM9.02404 89.5951C8.73029 91.1666 8.44631 92.7585 8.17272 94.3707L7.18682 94.2034C7.46134 92.5857 7.74629 90.9884 8.04106 89.4114L9.02404 89.5951ZM7.40342 99.1392C7.16243 100.714 6.93141 102.307 6.71089 103.919L5.72012 103.783C5.94136 102.166 6.17314 100.568 6.41493 98.9879L7.40342 99.1392ZM6.092 108.721C5.89945 110.312 5.71717 111.92 5.54564 113.546L4.55116 113.441C4.72322 111.81 4.90607 110.197 5.09924 108.6L6.092 108.721ZM5.07547 118.345C4.93153 119.935 4.7979 121.541 4.67499 123.163L3.67785 123.088C3.80113 121.461 3.93517 119.85 4.07954 118.255L5.07547 118.345ZM4.34311 128.006C4.24543 129.599 4.15807 131.206 4.08142 132.828L3.08254 132.781C3.15941 131.155 3.24701 129.543 3.34499 127.945L4.34311 128.006ZM3.88663 137.658C3.83295 139.263 3.78973 140.882 3.75731 142.515L2.75751 142.495C2.79001 140.858 2.83335 139.234 2.88719 137.625L3.88663 137.658ZM3.6936 147.338C3.68824 148.148 3.68555 148.962 3.68555 149.779H2.68555C2.68555 148.96 2.68825 148.144 2.69362 147.331L3.6936 147.338Z" fill="#2B62A3"/>
</svg>
