<svg width="48" height="153" viewBox="0 0 48 153" fill="none" xmlns="http://www.w3.org/2000/svg">
<path d="M0.520833 3.43457C0.520833 4.90733 1.71474 6.10124 3.1875 6.10124C4.66026 6.10124 5.85417 4.90733 5.85417 3.43457C5.85417 1.96181 4.66026 0.767904 3.1875 0.767904C1.71474 0.767904 0.520833 1.96181 0.520833 3.43457ZM42.1947 149.779C42.1947 151.252 43.3886 152.445 44.8613 152.445C46.3341 152.445 47.528 151.252 47.528 149.779C47.528 148.306 46.3341 147.112 44.8613 147.112C43.3886 147.112 42.1947 148.306 42.1947 149.779ZM2.82991 3.78404C3.34954 4.31575 3.88973 4.89789 4.44821 5.53053L5.19789 4.86872C4.62918 4.2245 4.0775 3.62989 3.54509 3.0851L2.82991 3.78404ZM7.48765 9.25272C8.39958 10.4498 9.34236 11.7573 10.3086 13.1751L11.1349 12.612C10.1594 11.1805 9.20636 9.85864 8.28313 8.64673L7.48765 9.25272ZM12.9316 17.2114C13.7463 18.5236 14.572 19.9086 15.4048 21.3661L16.273 20.8701C15.4344 19.4022 14.6025 18.0068 13.7811 16.6839L12.9316 17.2114ZM17.7265 25.5899C18.4579 26.9721 19.1919 28.409 19.9256 29.9005L20.8229 29.4591C20.0849 27.9589 19.3465 26.5132 18.6104 25.1222L17.7265 25.5899ZM22.0049 34.2788C22.659 35.7055 23.311 37.176 23.959 38.6899L24.8784 38.2964C24.227 36.7747 23.5716 35.2965 22.9139 33.862L22.0049 34.2788ZM25.8053 43.1523C26.3915 44.6182 26.9728 46.1209 27.5478 47.6601L28.4846 47.3102C27.907 45.7638 27.3229 44.2541 26.7339 42.781L25.8053 43.1523ZM29.1898 52.208C29.7117 53.7043 30.227 55.2323 30.7344 56.7919L31.6854 56.4824C31.1758 54.9162 30.6583 53.3816 30.134 51.8786L29.1898 52.208ZM32.1847 61.4088C32.6459 62.9302 33.0991 64.4795 33.5435 66.0565L34.506 65.7853C34.0599 64.202 33.6048 62.6465 33.1418 61.1187L32.1847 61.4088ZM34.8119 70.7285C35.2133 72.2644 35.6061 73.8248 35.9893 75.4099L36.9613 75.1749C36.5766 73.5839 36.1824 72.0174 35.7794 70.4757L34.8119 70.7285ZM37.0822 80.1148C37.4286 81.6687 37.7657 83.2449 38.0928 84.8432L39.0725 84.6428C38.7442 83.0387 38.4059 81.4569 38.0583 79.8973L37.0822 80.1148ZM39.0228 89.5951C39.3166 91.1666 39.6006 92.7585 39.8742 94.3707L40.8601 94.2034C40.5855 92.5857 40.3006 90.9884 40.0058 89.4114L39.0228 89.5951ZM40.6435 99.1392C40.8844 100.714 41.1155 102.307 41.336 103.919L42.3268 103.783C42.1055 102.166 41.8737 100.568 41.6319 98.9879L40.6435 99.1392ZM41.9549 108.721C42.1474 110.312 42.3297 111.92 42.5012 113.546L43.4957 113.441C43.3237 111.81 43.1408 110.197 42.9476 108.6L41.9549 108.721ZM42.9714 118.345C43.1153 119.935 43.249 121.541 43.3719 123.163L44.369 123.088C44.2457 121.461 44.1117 119.85 43.9673 118.255L42.9714 118.345ZM43.7038 128.006C43.8014 129.599 43.8888 131.206 43.9655 132.828L44.9643 132.781C44.8875 131.155 44.7999 129.543 44.7019 127.945L43.7038 128.006ZM44.1602 137.658C44.2139 139.263 44.2571 140.882 44.2896 142.515L45.2894 142.495C45.2569 140.858 45.2135 139.234 45.1597 137.625L44.1602 137.658ZM44.3533 147.338C44.3586 148.148 44.3613 148.962 44.3613 149.779H45.3613C45.3613 148.96 45.3586 148.144 45.3533 147.331L44.3533 147.338Z" fill="#2B62A3"/>
</svg>
