<svg width="62" height="190" viewBox="0 0 62 190" fill="none" xmlns="http://www.w3.org/2000/svg">
<path d="M41.8594 172.279C40.6232 172.279 39.4149 171.913 38.3871 171.226C37.3593 170.539 36.5582 169.563 36.0851 168.421C35.6121 167.279 35.4883 166.022 35.7295 164.81C35.9706 163.598 36.5659 162.484 37.44 161.61C38.314 160.736 39.4277 160.141 40.6401 159.899C41.8524 159.658 43.1091 159.782 44.2512 160.255C45.3932 160.728 46.3693 161.529 47.0561 162.557C47.7428 163.585 48.1094 164.793 48.1094 166.029C48.1074 167.686 47.4483 169.275 46.2766 170.447C45.1049 171.618 43.5164 172.277 41.8594 172.279ZM41.8594 162.279C41.1177 162.279 40.3927 162.499 39.776 162.911C39.1593 163.323 38.6787 163.909 38.3948 164.594C38.111 165.279 38.0367 166.033 38.1814 166.761C38.3261 167.488 38.6833 168.157 39.2077 168.681C39.7322 169.205 40.4004 169.563 41.1278 169.707C41.8552 169.852 42.6092 169.778 43.2944 169.494C43.9797 169.21 44.5653 168.729 44.9774 168.113C45.3894 167.496 45.6094 166.771 45.6094 166.029C45.6084 165.035 45.213 164.082 44.5099 163.379C43.8069 162.676 42.8536 162.28 41.8594 162.279Z" fill="white"/>
<path d="M41.8594 187.279L31.3144 174.843C31.1679 174.656 31.0229 174.468 30.8794 174.279C29.0781 171.907 28.105 169.008 28.1094 166.029C28.1094 162.383 29.558 158.885 32.1367 156.307C34.7153 153.728 38.2127 152.279 41.8594 152.279C45.5061 152.279 49.0035 153.728 51.5821 156.307C54.1607 158.885 55.6094 162.383 55.6094 166.029C55.6138 169.007 54.6411 171.904 52.8406 174.276L52.8394 174.279C52.8394 174.279 52.4644 174.772 52.4081 174.838L41.8594 187.279ZM32.8744 172.773C32.8769 172.773 33.1669 173.158 33.2331 173.241L41.8594 183.414L50.4969 173.227C50.5519 173.158 50.8444 172.771 50.8456 172.769C52.3171 170.831 53.1123 168.463 53.1094 166.029C53.1094 163.046 51.9241 160.184 49.8143 158.074C47.7046 155.965 44.8431 154.779 41.8594 154.779C38.8757 154.779 36.0142 155.965 33.9044 158.074C31.7947 160.184 30.6094 163.046 30.6094 166.029C30.6068 168.465 31.4016 170.834 32.8744 172.773Z" fill="white"/>
<path d="M0.520833 3.43457C0.520833 4.90733 1.71474 6.10124 3.1875 6.10124C4.66026 6.10124 5.85417 4.90733 5.85417 3.43457C5.85417 1.96181 4.66026 0.767904 3.1875 0.767904C1.71474 0.767904 0.520833 1.96181 0.520833 3.43457ZM42.1947 149.779C42.1947 151.252 43.3886 152.445 44.8613 152.445C46.3341 152.445 47.528 151.252 47.528 149.779C47.528 148.306 46.3341 147.112 44.8613 147.112C43.3886 147.112 42.1947 148.306 42.1947 149.779ZM2.82991 3.78404C3.34954 4.31575 3.88973 4.89789 4.44821 5.53053L5.19789 4.86872C4.62918 4.2245 4.0775 3.62989 3.54509 3.0851L2.82991 3.78404ZM7.48765 9.25272C8.39958 10.4498 9.34236 11.7573 10.3086 13.1751L11.1349 12.612C10.1594 11.1805 9.20636 9.85864 8.28313 8.64673L7.48765 9.25272ZM12.9316 17.2114C13.7463 18.5236 14.572 19.9086 15.4048 21.3661L16.273 20.8701C15.4344 19.4022 14.6025 18.0068 13.7811 16.6839L12.9316 17.2114ZM17.7265 25.5899C18.4579 26.9721 19.1919 28.409 19.9256 29.9005L20.8229 29.4591C20.0849 27.9589 19.3465 26.5132 18.6104 25.1222L17.7265 25.5899ZM22.0049 34.2788C22.659 35.7055 23.311 37.176 23.959 38.6899L24.8784 38.2964C24.227 36.7747 23.5716 35.2965 22.9139 33.862L22.0049 34.2788ZM25.8053 43.1523C26.3915 44.6182 26.9728 46.1209 27.5478 47.6601L28.4846 47.3102C27.907 45.7638 27.3229 44.2541 26.7339 42.781L25.8053 43.1523ZM29.1898 52.208C29.7117 53.7043 30.227 55.2323 30.7344 56.7919L31.6854 56.4824C31.1758 54.9162 30.6583 53.3816 30.134 51.8786L29.1898 52.208ZM32.1847 61.4088C32.6459 62.9302 33.0991 64.4795 33.5435 66.0565L34.506 65.7853C34.0599 64.202 33.6048 62.6465 33.1418 61.1187L32.1847 61.4088ZM34.8119 70.7285C35.2133 72.2644 35.6061 73.8248 35.9893 75.4099L36.9613 75.1749C36.5766 73.5839 36.1824 72.0174 35.7794 70.4757L34.8119 70.7285ZM37.0822 80.1148C37.4286 81.6687 37.7657 83.2449 38.0928 84.8432L39.0725 84.6428C38.7442 83.0387 38.4059 81.4569 38.0583 79.8973L37.0822 80.1148ZM39.0228 89.5951C39.3166 91.1666 39.6006 92.7585 39.8742 94.3707L40.8601 94.2034C40.5855 92.5857 40.3006 90.9884 40.0058 89.4114L39.0228 89.5951ZM40.6435 99.1392C40.8844 100.714 41.1155 102.307 41.336 103.919L42.3268 103.783C42.1055 102.166 41.8737 100.568 41.6319 98.9879L40.6435 99.1392ZM41.9549 108.721C42.1474 110.312 42.3297 111.92 42.5012 113.546L43.4957 113.441C43.3237 111.81 43.1408 110.197 42.9476 108.6L41.9549 108.721ZM42.9714 118.345C43.1153 119.935 43.249 121.541 43.3719 123.163L44.369 123.088C44.2457 121.461 44.1117 119.85 43.9673 118.255L42.9714 118.345ZM43.7038 128.006C43.8014 129.599 43.8888 131.206 43.9655 132.828L44.9643 132.781C44.8875 131.155 44.7999 129.543 44.7019 127.945L43.7038 128.006ZM44.1602 137.658C44.2139 139.263 44.2571 140.882 44.2896 142.515L45.2894 142.495C45.2569 140.858 45.2135 139.234 45.1597 137.625L44.1602 137.658ZM44.3533 147.338C44.3586 148.148 44.3613 148.962 44.3613 149.779H45.3613C45.3613 148.96 45.3586 148.144 45.3533 147.331L44.3533 147.338Z" fill="#2B62A3"/>
</svg>
